PathFileType	4	(X/Y/Z)	C:\Users\WrightLab\Desktop\Jo\P5V137.trc
DataRate	CameraRate	NumFrames	NumMarkers	Units	OrigDataRate	OrigDataStartFrame	OrigNumFrames
100.00	100.00	       67	19	mm	100.00	468	       534
Frame#	Time	Headset_Front			Headset_Back			Headset_Left			Headset_Right			Left_Shoulder			Right_Shoulder			Sternum			C7			Left Elbow			Right Elbow			Left Wrist			Right Wrist			Left ASIS			Right ASIS			S2			Left Knee			Right Knee			Left Ankle			Right Ankle			
		X1	Y1	Z1	X2	Y2	Z2	X3	Y3	Z3	X4	Y4	Z4	X5	Y5	Z5	X6	Y6	Z6	X7	Y7	Z7	X8	Y8	Z8	X9	Y9	Z9	X10	Y10	Z10	X11	Y11	Z11	X12	Y12	Z12	X13	Y13	Z13	X14	Y14	Z14	X15	Y15	Z15	X16	Y16	Z16	X17	Y17	Z17	X18	Y18	Z18	X19	Y19	Z19	

468	4.670																																																	-426.82162	559.77924	1996.44861	-96.30865	146.90324	2214.23071				
469	4.680																																																	-430.14114	559.77960	2003.66174	-96.20786	147.06677	2213.90723				
470	4.690																																																	-433.14670	559.07257	2011.16455	-96.22095	147.10739	2213.81445				
471	4.700																																																	-436.17679	559.62964	2019.67151	-96.23680	147.15019	2213.71411				
472	4.710																																																	-438.73846	559.98151	2026.48730	-96.60342	146.60010	2212.60254				
473	4.720																																																	-440.46927	560.06989	2032.26123	-96.93702	146.86241	2212.45801				
474	4.730																																																	-443.98215	561.50989	2045.65454	-96.91015	146.95717	2212.13843				
475	4.740																																																	-445.18735	561.96667	2052.61499	-98.04039	147.40755	2211.66235				
476	4.750																																																	-445.91635	562.23816	2058.91602	-98.17072	147.53494	2211.36206				
477	4.760																																																	-447.04025	562.61993	2066.03613	-99.35788	146.97316	2209.92310				
478	4.770																																																	-447.38098	561.62946	2071.63916	-99.36791	147.10376	2209.66064				
479	4.780																																																	-447.63690	562.05536	2078.04712	-100.21201	144.61697	2206.07544				
480	4.790																																																	-447.54730	561.24432	2085.01294	-99.86330	147.80081	2209.45435				
481	4.800																																																	-446.94650	560.34424	2091.23608	-99.85201	147.81381	2209.44312				
482	4.810																																																	-445.97235	559.58099	2097.55005	-99.83112	147.83745	2209.42334				
483	4.820																																																	-444.52252	557.95386	2103.81396	-99.25093	147.30931	2209.32837				
484	4.830																																																	-441.72009	557.28137	2102.70313	-99.22356	147.31842	2209.34399				
485	4.840																																																	-438.80460	556.12567	2107.75806	-98.99374	147.32764	2209.21362				
486	4.850																																																	-435.73755	554.89124	2112.67480	-98.22245	148.12701	2210.59644				
487	4.860																																																	-431.85587	553.37408	2118.53003	-98.19769	148.12726	2210.62549				
488	4.870																																																	-428.52084	553.92487	2122.95679	-98.17431	148.14050	2210.62842				
489	4.880																																																	-424.80368	553.89832	2127.67993	-98.08444	148.03171	2210.69995				
490	4.890																																																	-421.75940	554.83929	2130.21460	-98.14677	148.15457	2210.63477				
491	4.900																																																	-419.09277	556.18256	2135.01099	-97.96146	148.27000	2210.33325				
492	4.910																																																	-416.02771	556.84106	2137.54126	-97.95829	148.28931	2210.30029				
493	4.920																																																	-413.16931	557.65088	2142.86499	-97.96296	148.30884	2210.25781				
494	4.930																																																	-410.51297	558.02722	2147.63184	-97.96083	148.31615	2210.24658				
495	4.940																																																	-407.98169	558.15222	2152.43848	-97.94953	148.32690	2210.23975				
496	4.950																																																	-406.02243	559.73761	2155.54614	-97.94795	148.32523	2210.24463				
497	4.960																																																	-403.32040	559.34894	2161.96777	-97.94579	148.31296	2210.27051				
498	4.970																																																	-401.35852	559.45856	2164.87842	-97.95299	148.29362	2210.29858				
499	4.980																																																	-398.34921	558.47021	2173.57349	-97.96981	148.26949	2210.32422				
500	4.990																																																	-396.11932	558.38464	2175.30420	-97.97813	148.25929	2210.33350				
501	5.000																																																	-393.84387	558.31323	2176.97266	-98.18008	148.14117	2210.62012				
502	5.010																																																	-391.55688	557.88391	2180.46582	-98.03342	147.89503	2210.75439				
503	5.020																																																	-390.16205	558.64777	2181.25317	-98.12958	147.72127	2211.01611				
504	5.030																																																	-389.44925	560.31982	2183.03247	-98.20904	147.56224	2211.26465				
505	5.040																																																				-98.21529	147.55284	2211.27490				
506	5.050																																																				-98.22138	147.54510	2211.28247				
507	5.060																																																				-98.22594	147.53694	2211.29248				
508	5.070																																																				-98.24187	147.53053	2211.28540				
509	5.080																																																				-98.24688	147.51852	2211.30225				
510	5.090																																																				-98.24817	147.52170	2211.29468				
511	5.100																																																				-98.24536	147.51276	2211.31494				
512	5.110																																																				-98.23470	147.51678	2211.32007				
513	5.120																																																				-98.23173	147.51610	2211.32495				
514	5.130																																																				-98.21985	147.38260	2211.49487				
515	5.140																																																				-98.21126	147.38368	2211.50317				
516	5.150																																																				-98.22005	147.37476	2211.50952				
517	5.160																																																				-98.20264	147.37358	2211.53271				
518	5.170																																																				-98.20372	147.36595	2211.54565				
519	5.180																																																				-98.21145	147.35448	2211.55835				
520	5.190																																																				-98.21838	147.34041	2211.57666				
521	5.200																																																				-98.36499	147.19986	2211.83960				
522	5.210																																																				-98.37021	147.19412	2211.84424				
523	5.220																																																				-98.37208	147.18127	2211.86621				
524	5.230																																																				-98.37624	147.16577	2211.89063				
525	5.240																																																				-98.37299	147.15421	2211.91650				
526	5.250																																																				-98.35995	147.15503	2211.93042				
527	5.260																																																				-98.36301	147.15002	2211.93628				
528	5.270																																																				-98.35663	147.14949	2211.94507				
529	5.280																																																				-98.35070	147.14896	2211.95313				
530	5.290																																																				-98.35604	147.14217	2211.95947				
531	5.300																																																				-98.36288	147.13925	2211.95679				
532	5.310																																																				-98.37053	147.13252	2211.96045				
533	5.320																																																				-98.37501	147.12930	2211.96118				
534	5.330																																																				-98.37277	147.12497	2211.97217				
